<svg width="43" height="44" viewBox="0 0 43 44" fill="none" xmlns="http://www.w3.org/2000/svg">
<path d="M21.5665 43.1979C33.3767 43.1979 42.9508 33.6238 42.9508 21.8135C42.9508 10.0033 33.3767 0.429199 21.5665 0.429199C9.75622 0.429199 0.182129 10.0033 0.182129 21.8135C0.182129 33.6238 9.75622 43.1979 21.5665 43.1979Z" fill="#FFF7F3"/>
<path fill-rule="evenodd" clip-rule="evenodd" d="M9.86211 21.5878C16.0961 18.8718 20.253 17.0812 22.333 16.2161C28.2716 13.746 29.5056 13.3169 30.3099 13.3028C30.4868 13.2996 30.8824 13.3435 31.1386 13.5514C31.3549 13.7269 31.4145 13.9641 31.4429 14.1305C31.4714 14.2969 31.5069 14.6761 31.4787 14.9723C31.1569 18.3537 29.7644 26.5594 29.056 30.3466C28.7562 31.9491 28.166 32.4864 27.5945 32.539C26.3527 32.6532 25.4097 31.7183 24.2069 30.9298C22.3248 29.6961 21.2616 28.9281 19.4347 27.7242C17.3234 26.3329 18.692 25.5682 19.8953 24.3185C20.2102 23.9914 25.6817 19.0146 25.7876 18.5632C25.8008 18.5067 25.8131 18.2962 25.6881 18.1851C25.563 18.074 25.3785 18.112 25.2453 18.1422C25.0566 18.185 22.0499 20.1723 16.2253 24.1041C15.3718 24.6901 14.5988 24.9757 13.9062 24.9607C13.1427 24.9442 11.674 24.529 10.5821 24.1741C9.24294 23.7388 8.17857 23.5086 8.27125 22.7693C8.31953 22.3842 8.84981 21.9904 9.86211 21.5878Z" fill="#5600DE"/>
</svg>
